###

Star Wars The Clone Wars S03E17 HDTV XviD-FQM

###

Plot:

The Grand Clone Army of the Republic, led by Jedi Masters Yoda, Mace Windu, Obi-Wan Kenobi and other Masters must fight the New Droid Army of the Separatists to defend the Republic and the political stability of the galaxy. They face the cunning Dooku, the vicious General Grievous and the relentless Asajj Ventress on the field of battle, all the while, behind the scenes, Senator Palpatine manipulates things to his benefit.

Meanwhile Jedi Knight Anakin Skywalker takes on a young Padawan apprentice named Ashoka Tano and is trying to train her to become a Jedi Knight in the midst of the Galactic War. 

###

[code]

Format                           : AVI
Format/Info                      : Audio Video Interleave
File size                        : 175 MiB
Duration                         : 21mn 36s
Overall bit rate                 : 1 134 Kbps
Writing application              : transcode-1.0.4

Video
ID                               : 0
Format                           : MPEG-4 Visual
Format profile                   : Advanced Simple@L5
Format settings, BVOP            : 2
Format settings, QPel            : No
Format settings, GMC             : No warppoints
Format settings, Matrix          : Default (H.263)
Codec ID                         : XVID
Codec ID/Hint                    : XviD
Duration                         : 21mn 36s
Bit rate                         : 974 Kbps
Width                            : 624 pixels
Height                           : 352 pixels
Display aspect ratio             : 16:9
Frame rate                       : 23.976 fps
Color space                      : YUV
Chroma subsampling               : 4:2:0
Bit depth                        : 8 bits
Scan type                        : Progressive
Compression mode                 : Lossy
Bits/(Pixel*Frame)               : 0.185
Stream size                      : 151 MiB (86%)
Writing library                  : XviD 1.2.1 (UTC 2008-12-04)

Audio
ID                               : 1
Format                           : MPEG Audio
Format version                   : Version 1
Format profile                   : Layer 3
Codec ID                         : 55
Codec ID/Hint                    : MP3
Duration                         : 21mn 36s
Bit rate mode                    : Variable
Bit rate                         : 128 Kbps
Channel(s)                       : 2 channels
Sampling rate                    : 48.0 KHz
Compression mode                 : Lossy
Stream size                      : 22.8 MiB (13%)
Alignment                        : Aligned on interleaves
Interleave, duration             : 24 ms (0.58 video frame)
Writing library                  : LAME3.98.2
[/code]

